<svg width="52" height="56" viewBox="0 0 52 56" fill="none" xmlns="http://www.w3.org/2000/svg">
<g clip-path="url(#clip0_2209_2118)">
<path d="M43.1894 31.0408L22.7538 10.8808L12.4091 0.672C11.3768 0.224 10.2657 0 9.13756 0C4.15698 0 0.107079 4.536 -9.12278e-05 10.1696V34.5128C-0.0734181 40.2864 4.58002 45.0296 10.3954 45.1024H39.0323C42.4618 43.4336 44.6503 39.9784 44.6729 36.1872C44.6729 34.3672 44.1596 32.5864 43.1894 31.0408Z" fill="#E72F5B"/>
<path d="M41.6045 10.8976H12.9732C9.54377 12.5664 7.35525 16.0216 7.33269 19.8128C7.33269 21.6328 7.84033 23.4192 8.80486 24.9648L29.2405 45.1248L39.6134 55.328C40.64 55.7704 41.7455 56 42.868 56C47.8429 56 51.8928 51.4696 52 45.836V21.4816C52.0733 15.708 47.4199 10.9704 41.6045 10.8976Z" fill="#3CA5DE"/>
<path opacity="0.5" d="M8.80486 24.9648L29.2405 45.1248H39.0324C42.4619 43.456 44.6504 40.0008 44.673 36.2096C44.673 34.3896 44.1597 32.6088 43.1951 31.0632L22.7595 10.9032H12.9732C9.54377 12.572 7.36089 16.0216 7.33269 19.8128C7.33269 21.6328 7.84033 23.4192 8.80486 24.9648Z" fill="#27348B"/>
</g>
<defs>
<clipPath id="clip0_2209_2118">
<rect width="52" height="56" fill="white"/>
</clipPath>
</defs>
</svg>
