<svg width="172" height="88" viewBox="0 0 172 88" fill="none" xmlns="http://www.w3.org/2000/svg">
<path d="M12.7322 71.4567C12.647 70.5973 12.2813 69.9297 11.6349 69.4538C10.9886 68.978 10.1115 68.7401 9.00355 68.7401C8.25071 68.7401 7.61506 68.8466 7.09659 69.0597C6.57813 69.2656 6.1804 69.5533 5.90341 69.9226C5.63352 70.2919 5.49858 70.7109 5.49858 71.1797C5.48438 71.5703 5.56605 71.9112 5.74361 72.2024C5.92827 72.4936 6.1804 72.7457 6.5 72.9588C6.8196 73.1648 7.18892 73.3459 7.60795 73.5021C8.02699 73.6513 8.47443 73.7791 8.95028 73.8857L10.9105 74.3544C11.8622 74.5675 12.7358 74.8516 13.5312 75.2067C14.3267 75.5618 15.0156 75.9986 15.598 76.517C16.1804 77.0355 16.6314 77.6463 16.951 78.3494C17.2777 79.0526 17.4446 79.8587 17.4517 80.7678C17.4446 82.103 17.1037 83.2607 16.429 84.2408C15.7614 85.2138 14.7955 85.9702 13.5312 86.5099C12.2741 87.0426 10.7578 87.3089 8.98224 87.3089C7.22088 87.3089 5.68679 87.0391 4.37997 86.4993C3.08026 85.9595 2.06463 85.1605 1.3331 84.1023C0.608665 83.0369 0.228693 81.7195 0.193182 80.1499H4.65696C4.70668 80.8814 4.91619 81.4922 5.28551 81.9822C5.66193 82.4652 6.16264 82.831 6.78764 83.0795C7.41974 83.321 8.13352 83.4418 8.92898 83.4418C9.71023 83.4418 10.3885 83.3281 10.9638 83.1009C11.5462 82.8736 11.9972 82.5575 12.3168 82.1527C12.6364 81.7479 12.7962 81.2827 12.7962 80.7571C12.7962 80.267 12.6506 79.8551 12.3594 79.5213C12.0753 79.1875 11.6563 78.9034 11.1023 78.669C10.5554 78.4347 9.88423 78.2216 9.08878 78.0298L6.71307 77.4332C4.87358 76.9858 3.42116 76.2862 2.35582 75.3345C1.29048 74.3828 0.761364 73.1009 0.768466 71.4886C0.761364 70.1676 1.11293 69.0135 1.82315 68.0263C2.54048 67.0391 3.52415 66.2685 4.77415 65.7145C6.02415 65.1605 7.4446 64.8835 9.03551 64.8835C10.6548 64.8835 12.0682 65.1605 13.2756 65.7145C14.4901 66.2685 15.4347 67.0391 16.1094 68.0263C16.7841 69.0135 17.1321 70.157 17.1534 71.4567H12.7322ZM29.1731 70.6364V74.0455H19.3187V70.6364H29.1731ZM21.5559 66.7159H26.0943V81.9716C26.0943 82.3906 26.1582 82.7173 26.286 82.9517C26.4139 83.179 26.5914 83.3388 26.8187 83.4311C27.0531 83.5234 27.323 83.5696 27.6284 83.5696C27.8414 83.5696 28.0545 83.5518 28.2676 83.5163C28.4806 83.4737 28.644 83.4418 28.7576 83.4205L29.4714 86.7976C29.2441 86.8686 28.9245 86.9503 28.5126 87.0426C28.1007 87.142 27.6 87.2024 27.0105 87.2237C25.9167 87.2663 24.9579 87.1207 24.1341 86.7869C23.3173 86.4531 22.6816 85.9347 22.2271 85.2315C21.7725 84.5284 21.5488 83.6406 21.5559 82.5682V66.7159ZM39.3471 87.3196C37.6923 87.3196 36.2612 86.968 35.0538 86.2649C33.8535 85.5547 32.9267 84.5675 32.2733 83.3033C31.6199 82.032 31.2931 80.5582 31.2931 78.8821C31.2931 77.1918 31.6199 75.7145 32.2733 74.4503C32.9267 73.179 33.8535 72.1918 35.0538 71.4886C36.2612 70.7784 37.6923 70.4233 39.3471 70.4233C41.002 70.4233 42.4295 70.7784 43.6298 71.4886C44.8372 72.1918 45.7676 73.179 46.421 74.4503C47.0744 75.7145 47.4011 77.1918 47.4011 78.8821C47.4011 80.5582 47.0744 82.032 46.421 83.3033C45.7676 84.5675 44.8372 85.5547 43.6298 86.2649C42.4295 86.968 41.002 87.3196 39.3471 87.3196ZM39.3684 83.804C40.1213 83.804 40.7498 83.5909 41.2541 83.1648C41.7583 82.7315 42.1383 82.142 42.394 81.3963C42.6568 80.6506 42.7882 79.8018 42.7882 78.8501C42.7882 77.8984 42.6568 77.0497 42.394 76.304C42.1383 75.5582 41.7583 74.9687 41.2541 74.5355C40.7498 74.1023 40.1213 73.8857 39.3684 73.8857C38.6085 73.8857 37.9693 74.1023 37.4508 74.5355C36.9395 74.9687 36.5524 75.5582 36.2896 76.304C36.0339 77.0497 35.9061 77.8984 35.9061 78.8501C35.9061 79.8018 36.0339 80.6506 36.2896 81.3963C36.5524 82.142 36.9395 82.7315 37.4508 83.1648C37.9693 83.5909 38.6085 83.804 39.3684 83.804ZM50.3521 87V70.6364H54.752V73.4915H54.9224C55.2207 72.4759 55.7214 71.7088 56.4245 71.1903C57.1277 70.6648 57.9373 70.402 58.8535 70.402C59.0808 70.402 59.3258 70.4162 59.5886 70.4446C59.8514 70.473 60.0822 70.5121 60.2811 70.5618V74.5888C60.068 74.5249 59.7733 74.468 59.3968 74.4183C59.0204 74.3686 58.676 74.3438 58.3635 74.3438C57.6958 74.3438 57.0993 74.4893 56.5737 74.7805C56.0552 75.0646 55.6433 75.4624 55.3379 75.9737C55.0396 76.4851 54.8904 77.0746 54.8904 77.7422V87H50.3521ZM69.3232 87.3196C67.6399 87.3196 66.1911 86.9787 64.9766 86.2969C63.7692 85.608 62.8388 84.6349 62.1854 83.3778C61.532 82.1136 61.2053 80.6186 61.2053 78.8928C61.2053 77.2095 61.532 75.7322 62.1854 74.4609C62.8388 73.1896 63.7585 72.1989 64.9446 71.4886C66.1378 70.7784 67.5369 70.4233 69.142 70.4233C70.2216 70.4233 71.2266 70.5973 72.157 70.9453C73.0945 71.2862 73.9112 71.8011 74.6072 72.4901C75.3104 73.179 75.8572 74.0455 76.2479 75.0895C76.6385 76.1264 76.8338 77.3409 76.8338 78.733V79.9794H63.0163V77.1669H72.5618C72.5618 76.5135 72.4197 75.9347 72.1357 75.4304C71.8516 74.9261 71.4574 74.532 70.9531 74.2479C70.456 73.9567 69.8771 73.8111 69.2166 73.8111C68.5277 73.8111 67.9169 73.9709 67.3842 74.2905C66.8587 74.603 66.4467 75.0256 66.1484 75.5582C65.8501 76.0838 65.6974 76.6697 65.6903 77.3161V79.9901C65.6903 80.7997 65.8395 81.4993 66.1378 82.0888C66.4432 82.6783 66.8729 83.1328 67.4268 83.4524C67.9808 83.772 68.6378 83.9318 69.3977 83.9318C69.902 83.9318 70.3636 83.8608 70.7827 83.7188C71.2017 83.5767 71.5604 83.3636 71.8587 83.0795C72.157 82.7955 72.3842 82.4474 72.5405 82.0355L76.7379 82.3125C76.5249 83.321 76.0881 84.2017 75.4276 84.9545C74.7741 85.7003 73.929 86.2827 72.892 86.7017C71.8622 87.1136 70.6726 87.3196 69.3232 87.3196ZM83.6413 87H78.6982L86.2301 65.1818H92.1747L99.696 87H94.7528L89.2876 70.1676H89.1172L83.6413 87ZM83.3324 78.424H95.0085V82.0249H83.3324V78.424ZM107.505 87.2663C106.262 87.2663 105.136 86.9467 104.128 86.3075C103.126 85.6612 102.331 84.7131 101.741 83.4631C101.159 82.206 100.868 80.6648 100.868 78.8395C100.868 76.9645 101.17 75.4055 101.773 74.1626C102.377 72.9126 103.18 71.9787 104.181 71.3608C105.19 70.7358 106.294 70.4233 107.494 70.4233C108.411 70.4233 109.174 70.5795 109.785 70.892C110.403 71.1974 110.9 71.581 111.276 72.0426C111.66 72.4972 111.951 72.9446 112.15 73.3849H112.288V65.1818H116.816V87H112.342V84.3793H112.15C111.937 84.8338 111.635 85.2848 111.244 85.7322C110.861 86.1726 110.36 86.5384 109.742 86.8295C109.131 87.1207 108.386 87.2663 107.505 87.2663ZM108.943 83.6548C109.675 83.6548 110.293 83.456 110.797 83.0582C111.308 82.6534 111.699 82.0888 111.969 81.3643C112.246 80.6399 112.384 79.7912 112.384 78.8182C112.384 77.8452 112.249 77 111.979 76.2827C111.71 75.5653 111.319 75.0114 110.808 74.6207C110.296 74.2301 109.675 74.0348 108.943 74.0348C108.197 74.0348 107.569 74.2372 107.058 74.642C106.546 75.0469 106.159 75.608 105.896 76.3253C105.634 77.0426 105.502 77.8736 105.502 78.8182C105.502 79.7699 105.634 80.6115 105.896 81.343C106.166 82.0675 106.553 82.6357 107.058 83.0476C107.569 83.4524 108.197 83.6548 108.943 83.6548ZM120.547 87V70.6364H124.873V73.5234H125.064C125.405 72.5646 125.974 71.8082 126.769 71.2543C127.564 70.7003 128.516 70.4233 129.624 70.4233C130.746 70.4233 131.702 70.7038 132.49 71.2649C133.278 71.8189 133.804 72.5717 134.067 73.5234H134.237C134.571 72.5859 135.175 71.8366 136.048 71.2756C136.929 70.7074 137.969 70.4233 139.17 70.4233C140.697 70.4233 141.936 70.9098 142.888 71.8828C143.846 72.8487 144.326 74.2195 144.326 75.995V87H139.798V76.8899C139.798 75.9808 139.557 75.299 139.074 74.8445C138.591 74.3899 137.987 74.1626 137.263 74.1626C136.439 74.1626 135.796 74.4254 135.334 74.951C134.873 75.4695 134.642 76.1548 134.642 77.0071V87H130.242V76.794C130.242 75.9915 130.011 75.3523 129.55 74.8764C129.095 74.4006 128.495 74.1626 127.749 74.1626C127.245 74.1626 126.79 74.2905 126.385 74.5462C125.988 74.7947 125.672 75.1463 125.437 75.6009C125.203 76.0483 125.086 76.5739 125.086 77.1776V87H120.547ZM147.911 87V70.6364H152.449V87H147.911ZM150.191 68.527C149.516 68.527 148.937 68.3033 148.454 67.8558C147.978 67.4013 147.74 66.858 147.74 66.2259C147.74 65.6009 147.978 65.0646 148.454 64.6172C148.937 64.1626 149.516 63.9354 150.191 63.9354C150.865 63.9354 151.441 64.1626 151.916 64.6172C152.399 65.0646 152.641 65.6009 152.641 66.2259C152.641 66.858 152.399 67.4013 151.916 67.8558C151.441 68.3033 150.865 68.527 150.191 68.527ZM160.623 77.5398V87H156.085V70.6364H160.41V73.5234H160.602C160.964 72.5717 161.571 71.8189 162.423 71.2649C163.276 70.7038 164.309 70.4233 165.523 70.4233C166.66 70.4233 167.651 70.6719 168.496 71.169C169.341 71.6662 169.998 72.3764 170.467 73.2997C170.935 74.2159 171.17 75.3097 171.17 76.581V87H166.631V77.3906C166.638 76.3892 166.383 75.608 165.864 75.0469C165.346 74.4787 164.632 74.1946 163.723 74.1946C163.112 74.1946 162.572 74.326 162.104 74.5888C161.642 74.8516 161.28 75.2351 161.017 75.7393C160.761 76.2365 160.63 76.8366 160.623 77.5398Z" fill="black"/>
<g clip-path="url(#clip0_2204_2109)">
<path d="M103.189 31.0408L82.7538 10.8808L72.4091 0.672C71.3768 0.224 70.2657 0 69.1376 0C64.157 0 60.1071 4.536 59.9999 10.1696V34.5128C59.9266 40.2864 64.58 45.0296 70.3954 45.1024H99.0323C102.462 43.4336 104.65 39.9784 104.673 36.1872C104.673 34.3672 104.16 32.5864 103.189 31.0408Z" fill="#E72F5B"/>
<path d="M101.605 10.8976H72.9732C69.5438 12.5664 67.3552 16.0216 67.3327 19.8128C67.3327 21.6328 67.8403 23.4192 68.8049 24.9648L89.2405 45.1248L99.6134 55.328C100.64 55.7704 101.746 56 102.868 56C107.843 56 111.893 51.4696 112 45.836V21.4816C112.073 15.708 107.42 10.9704 101.605 10.8976Z" fill="#3CA5DE"/>
<path opacity="0.5" d="M68.8049 24.9648L89.2405 45.1248H99.0324C102.462 43.456 104.65 40.0008 104.673 36.2096C104.673 34.3896 104.16 32.6088 103.195 31.0632L82.7595 10.9032H72.9732C69.5438 12.572 67.3609 16.0216 67.3327 19.8128C67.3327 21.6328 67.8403 23.4192 68.8049 24.9648Z" fill="#27348B"/>
</g>
<defs>
<clipPath id="clip0_2204_2109">
<rect width="52" height="56" fill="white" transform="translate(60)"/>
</clipPath>
</defs>
</svg>
