<svg width="172" height="88" viewBox="" fill="none" xmlns="http://www.w3.org/2000/svg">
<g clip-path="url(#clip0_2204_2109)">
<path d="M103.189 31.0408L82.7538 10.8808L72.4091 0.672C71.3768 0.224 70.2657 0 69.1376 0C64.157 0 60.1071 4.536 59.9999 10.1696V34.5128C59.9266 40.2864 64.58 45.0296 70.3954 45.1024H99.0323C102.462 43.4336 104.65 39.9784 104.673 36.1872C104.673 34.3672 104.16 32.5864 103.189 31.0408Z" fill="#E72F5B"/>
<path d="M101.605 10.8976H72.9732C69.5438 12.5664 67.3552 16.0216 67.3327 19.8128C67.3327 21.6328 67.8403 23.4192 68.8049 24.9648L89.2405 45.1248L99.6134 55.328C100.64 55.7704 101.746 56 102.868 56C107.843 56 111.893 51.4696 112 45.836V21.4816C112.073 15.708 107.42 10.9704 101.605 10.8976Z" fill="#3CA5DE"/>
<path opacity="0.5" d="M68.8049 24.9648L89.2405 45.1248H99.0324C102.462 43.456 104.65 40.0008 104.673 36.2096C104.673 34.3896 104.16 32.6088 103.195 31.0632L82.7595 10.9032H72.9732C69.5438 12.572 67.3609 16.0216 67.3327 19.8128C67.3327 21.6328 67.8403 23.4192 68.8049 24.9648Z" fill="#27348B"/>
</g>
<defs>
<clipPath id="clip0_2204_2109">
<rect width="52" height="56" fill="white" transform="translate(60)"/>
</clipPath>
</defs>
</svg>
